<svg width="226" height="161" viewBox="0 0 226 161" fill="none" xmlns="http://www.w3.org/2000/svg">
<path d="M14.848 21.248C12.16 21.3333 10.0907 22.3573 8.64 24.32C7.232 26.2827 6.528 29.6747 6.528 34.496C6.528 36.0747 6.67733 37.184 6.976 37.824C7.27467 38.4213 7.424 38.7627 7.424 38.848C5.12 38.848 3.392 38.3787 2.24 37.44C1.13067 36.4587 0.576 34.8587 0.576 32.64C0.576 29.6107 1.32267 26.8587 2.816 24.384C4.30933 21.8667 6.67733 19.84 9.92 18.304C13.2053 16.768 17.3653 16 22.4 16C23.424 16 24.7893 16.1067 26.496 16.32C29.568 16.6187 31.744 16.768 33.024 16.768C35.2853 16.768 37.2053 16.512 38.784 16C38.656 16.384 38.4213 17.2373 38.08 18.56C37.7387 19.84 37.12 20.9493 36.224 21.888C35.3707 22.784 34.1973 23.3813 32.704 23.68C30.1867 23.68 27.2 23.2747 23.744 22.464L21.056 35.2H30.4L29.376 39.936H20.032L14.848 64H5.632L14.848 21.248ZM36.159 64.256C33.0017 64.256 30.5057 63.4453 28.671 61.824C26.8363 60.2027 25.919 57.6427 25.919 54.144C25.919 51.2427 26.5163 48.0213 27.711 44.48C28.9057 40.9387 30.8257 37.888 33.471 35.328C36.1163 32.7253 39.4443 31.424 43.455 31.424C48.9163 31.424 51.647 34.8373 51.647 41.664V41.728C51.775 41.7707 52.0097 41.792 52.351 41.792C53.759 41.792 55.3803 41.4293 57.215 40.704C59.0497 39.936 60.7137 39.0187 62.207 37.952L62.783 39.68C61.5457 41.0027 59.9243 42.1333 57.919 43.072C55.9563 43.968 53.8017 44.608 51.455 44.992C51.1137 48.8747 50.239 52.2667 48.831 55.168C47.423 58.0693 45.6097 60.3093 43.391 61.888C41.1723 63.4667 38.7617 64.256 36.159 64.256ZM38.719 58.496C39.743 58.496 40.767 57.92 41.791 56.768C42.815 55.5733 43.711 53.9733 44.479 51.968C45.247 49.92 45.8017 47.6587 46.143 45.184C44.991 44.928 44.415 44.032 44.415 42.496C44.415 40.7467 45.0763 39.5947 46.399 39.04C46.3137 37.632 46.1003 36.672 45.759 36.16C45.4177 35.6053 44.8203 35.328 43.967 35.328C42.559 35.328 41.1937 36.352 39.871 38.4C38.5483 40.448 37.4817 42.9013 36.671 45.76C35.8603 48.6187 35.455 51.136 35.455 53.312C35.455 55.36 35.6897 56.7467 36.159 57.472C36.6283 58.1547 37.4817 58.496 38.719 58.496ZM56.732 32H65.948L65.116 35.968C66.5667 34.688 67.868 33.7067 69.02 33.024C70.2147 32.3413 71.4947 32 72.86 32C74.2253 32 75.292 32.4693 76.06 33.408C76.8707 34.3467 77.276 35.4773 77.276 36.8C77.276 38.0373 76.8707 39.1253 76.06 40.064C75.2493 41.0027 74.1187 41.472 72.668 41.472C71.7293 41.472 71.0893 41.2587 70.748 40.832C70.4493 40.3627 70.2147 39.7013 70.044 38.848C69.916 38.2933 69.788 37.888 69.66 37.632C69.532 37.376 69.2973 37.248 68.956 37.248C68.06 37.248 67.292 37.44 66.652 37.824C66.0547 38.1653 65.2653 38.784 64.284 39.68L59.164 64H49.948L56.732 32ZM85.2105 80C83.1625 80 81.4558 79.4667 80.0905 78.4C78.7252 77.3333 78.0425 75.7973 78.0425 73.792C78.0425 71.36 79.0238 69.3973 80.9865 67.904C82.9492 66.4533 85.4452 65.2373 88.4745 64.256L89.2425 60.864C87.0665 63.2107 84.5065 64.384 81.5625 64.384C79.1305 64.384 77.1038 63.552 75.4825 61.888C73.8612 60.224 73.0505 57.6213 73.0505 54.08C73.0505 50.9227 73.6692 47.616 74.9065 44.16C76.1865 40.6613 78.0638 37.7173 80.5385 35.328C83.0558 32.896 86.0425 31.68 89.4985 31.68C91.2478 31.68 92.5492 31.9787 93.4025 32.576C94.2558 33.1733 94.6825 33.9627 94.6825 34.944V35.328L95.3865 32H104.603L98.2665 61.696C100.315 61.0133 101.957 59.9893 103.195 58.624C104.432 57.2587 105.477 55.232 106.331 52.544H109.019C107.867 56.3413 106.309 59.136 104.347 60.928C102.384 62.6773 100.165 63.872 97.6905 64.512L96.7305 69.12C95.8772 73.2587 94.4052 76.096 92.3145 77.632C90.2238 79.2107 87.8558 80 85.2105 80ZM85.7225 58.176C86.7038 58.176 87.7065 57.728 88.7305 56.832C89.7545 55.936 90.4585 54.72 90.8425 53.184L94.1065 38.016C94.1065 37.504 93.8932 36.992 93.4665 36.48C93.0398 35.9253 92.3785 35.648 91.4825 35.648C89.7758 35.648 88.2398 36.6507 86.8745 38.656C85.5092 40.6187 84.4425 43.008 83.6745 45.824C82.9065 48.5973 82.5225 51.0507 82.5225 53.184C82.5225 55.3173 82.8212 56.6827 83.4185 57.28C84.0585 57.8773 84.8265 58.176 85.7225 58.176ZM83.7385 75.008C84.4638 75.008 85.1678 74.5173 85.8505 73.536C86.5332 72.5547 87.0665 71.1467 87.4505 69.312L87.8345 67.456C83.6532 68.992 81.5625 70.8053 81.5625 72.896C81.5625 73.4507 81.7545 73.9413 82.1385 74.368C82.5225 74.7947 83.0558 75.008 83.7385 75.008ZM112.912 64.384C109.755 64.384 107.301 63.5733 105.552 61.952C103.803 60.288 102.928 57.7067 102.928 54.208C102.928 51.264 103.504 48.0213 104.656 44.48C105.808 40.9387 107.685 37.888 110.288 35.328C112.891 32.7253 116.197 31.424 120.208 31.424C124.901 31.424 127.248 33.472 127.248 37.568C127.248 39.9573 126.565 42.1547 125.2 44.16C123.835 46.1653 122.021 47.7867 119.76 49.024C117.499 50.2187 115.088 50.9013 112.528 51.072C112.443 52.352 112.4 53.2053 112.4 53.632C112.4 55.7227 112.763 57.152 113.488 57.92C114.213 58.6453 115.387 59.008 117.008 59.008C119.312 59.008 121.275 58.4747 122.896 57.408C124.56 56.3413 126.373 54.72 128.336 52.544H130.512C125.776 60.4373 119.909 64.384 112.912 64.384ZM113.04 48C114.619 47.9147 116.112 47.36 117.52 46.336C118.971 45.312 120.123 44.0107 120.976 42.432C121.872 40.8533 122.32 39.1893 122.32 37.44C122.32 35.6907 121.787 34.816 120.72 34.816C119.184 34.816 117.669 36.16 116.176 38.848C114.725 41.536 113.68 44.5867 113.04 48ZM133.442 64.384C131.01 64.384 128.984 63.552 127.362 61.888C125.741 60.224 124.93 57.6213 124.93 54.08C124.93 50.9227 125.549 47.616 126.786 44.16C128.066 40.6613 129.944 37.7173 132.418 35.328C134.936 32.896 137.922 31.68 141.378 31.68C143.128 31.68 144.429 31.9787 145.282 32.576C146.136 33.1733 146.562 33.9627 146.562 34.944V35.2L149.698 20.48L159.17 19.2L151.81 53.76C151.64 54.4 151.554 55.0187 151.554 55.616C151.554 57.3227 152.429 58.176 154.178 58.176C154.946 58.176 155.629 58.048 156.226 57.792C156.056 59.9253 155.288 61.568 153.922 62.72C152.6 63.8293 151.021 64.384 149.186 64.384C147.48 64.384 146.029 63.9573 144.834 63.104C143.682 62.208 142.914 60.864 142.53 59.072C139.97 62.6133 136.941 64.384 133.442 64.384ZM137.602 58.176C138.541 58.176 139.48 57.7707 140.418 56.96C141.4 56.1493 142.125 55.0187 142.594 53.568L142.85 52.544L145.986 37.888C145.602 36.3947 144.728 35.648 143.362 35.648C141.656 35.648 140.12 36.6507 138.754 38.656C137.389 40.6187 136.322 43.008 135.554 45.824C134.786 48.5973 134.402 51.0507 134.402 53.184C134.402 55.3173 134.701 56.6827 135.298 57.28C135.938 57.8773 136.706 58.176 137.602 58.176ZM180.251 20.544C177.392 21.696 175.174 23.4667 173.595 25.856C172.059 28.2027 171.291 31.0827 171.291 34.496C171.291 36.0747 171.44 37.184 171.739 37.824C172.038 38.4213 172.187 38.7627 172.187 38.848C169.883 38.848 168.155 38.3787 167.003 37.44C165.894 36.4587 165.339 34.8587 165.339 32.64C165.339 29.9093 166.448 27.264 168.667 24.704C170.928 22.1013 173.808 20.0107 177.307 18.432C180.806 16.8107 184.304 16 187.803 16C188.4 16 189.254 16.0427 190.363 16.128L180.187 64H170.971L180.251 20.544ZM208.411 64.384C206.15 64.384 204.507 63.7013 203.483 62.336C202.459 60.9707 201.947 59.2427 201.947 57.152C201.947 56.256 202.054 55.2533 202.267 54.144C202.48 52.992 202.694 51.8827 202.907 50.816C203.163 49.7493 203.334 49.0667 203.419 48.768C203.76 47.2747 204.08 45.8027 204.379 44.352C204.678 42.9013 204.827 41.728 204.827 40.832C204.827 38.656 204.059 37.568 202.523 37.568C201.414 37.568 200.432 38.1227 199.579 39.232C198.726 40.2987 198.043 41.7067 197.531 43.456L193.179 64H183.963L190.747 32H199.963L199.259 35.328C201.392 32.9387 203.888 31.744 206.747 31.744C208.923 31.744 210.651 32.3413 211.931 33.536C213.211 34.7307 213.851 36.544 213.851 38.976C213.851 40.2133 213.702 41.6 213.403 43.136C213.104 44.6293 212.678 46.464 212.123 48.64C211.782 49.9627 211.462 51.264 211.163 52.544C210.907 53.7813 210.779 54.7627 210.779 55.488C210.779 56.3413 210.971 57.0027 211.355 57.472C211.739 57.9413 212.4 58.176 213.339 58.176C214.363 58.176 215.067 58.048 215.451 57.792C215.195 59.968 214.406 61.6107 213.083 62.72C211.803 63.8293 210.246 64.384 208.411 64.384Z" fill="white"/>
<path d="M27.6231 119.158C24.9351 119.158 22.5671 118.689 20.5191 117.75C18.4711 116.812 16.8924 115.51 15.7831 113.846C14.6738 112.14 14.1191 110.177 14.1191 107.958C14.1191 106.081 14.5031 104.374 15.2711 102.838C16.0818 101.302 17.1484 100.086 18.4711 99.1903C19.8364 98.2943 21.3298 97.8463 22.9511 97.8463C24.4444 97.8463 25.7031 98.2303 26.7271 98.9983C27.7511 99.7237 28.3911 100.748 28.6471 102.07C26.4284 102.07 24.6578 102.668 23.3351 103.862C22.0124 105.014 21.3511 106.593 21.3511 108.598C21.3511 110.433 21.9058 111.905 23.0151 113.014C24.1244 114.124 25.5964 114.678 27.4311 114.678C29.6924 114.678 31.5484 113.932 32.9991 112.438C34.4924 110.902 35.2391 108.982 35.2391 106.678C35.2391 104.673 34.6844 102.774 33.5751 100.982C32.4658 99.1903 30.8018 97.0143 28.5831 94.4543C26.2791 91.809 24.5298 89.5477 23.3351 87.6703C22.1831 85.7503 21.6071 83.6597 21.6071 81.3983C21.6071 79.1797 22.2258 77.1957 23.4631 75.4463C24.7004 73.6543 26.4071 72.2463 28.5831 71.2223C30.7591 70.1983 33.2124 69.6863 35.9431 69.6863C39.3991 69.6863 42.1511 70.497 44.1991 72.1183C46.2898 73.7397 47.3351 75.9157 47.3351 78.6463C47.3351 80.4383 46.8871 81.889 45.9911 82.9983C45.0951 84.1077 43.9218 84.6623 42.4711 84.6623C40.8498 84.6623 39.5484 84.001 38.5671 82.6783C39.3778 82.081 40.0178 81.2917 40.4871 80.3103C40.9564 79.329 41.1911 78.305 41.1911 77.2383C41.1911 75.873 40.7858 74.785 39.9751 73.9743C39.1644 73.1637 38.0551 72.7583 36.6471 72.7583C34.9404 72.7583 33.5324 73.377 32.4231 74.6143C31.3564 75.809 30.8231 77.345 30.8231 79.2223C30.8231 80.929 31.3138 82.529 32.2951 84.0223C33.2764 85.473 34.8124 87.3503 36.9031 89.6543C38.6098 91.489 39.9751 93.0677 40.9991 94.3903C42.0658 95.713 42.9618 97.249 43.6871 98.9983C44.4551 100.705 44.8391 102.561 44.8391 104.566C44.8391 107.297 44.0711 109.772 42.5351 111.99C41.0418 114.209 38.9724 115.958 36.3271 117.238C33.7244 118.518 30.8231 119.158 27.6231 119.158ZM57.7871 134.006C55.7391 134.006 54.0324 133.473 52.6671 132.406C51.3018 131.34 50.6191 129.804 50.6191 127.798C50.6191 125.366 51.6004 123.404 53.5631 121.91C55.5258 120.46 58.0218 119.244 61.0511 118.262L61.8191 114.806C60.5818 116.172 59.3231 117.11 58.0431 117.622C56.7631 118.134 55.4618 118.39 54.1391 118.39C52.0911 118.39 50.4271 117.75 49.1471 116.47C47.9098 115.19 47.2911 113.27 47.2911 110.71C47.2911 109.644 47.4618 108.257 47.8031 106.55L52.1551 86.0063H61.3711L56.7631 107.766C56.6351 108.278 56.5711 108.812 56.5711 109.366C56.5711 111.244 57.2111 112.182 58.4911 112.182C59.6004 112.182 60.5818 111.713 61.4351 110.774C62.2884 109.793 62.9711 108.513 63.4831 106.934L67.9631 86.0063H77.1791L70.8431 115.702C72.8911 115.02 74.5338 113.996 75.7711 112.63C77.0084 111.265 78.0538 109.238 78.9071 106.55H81.5951C80.4431 110.348 78.8858 113.142 76.9231 114.934C74.9604 116.684 72.7418 117.878 70.2671 118.518L69.3071 123.126C68.4538 127.265 66.9818 130.102 64.8911 131.638C62.8004 133.217 60.4324 134.006 57.7871 134.006ZM56.3151 129.014C57.0404 129.014 57.7444 128.524 58.4271 127.542C59.1098 126.561 59.6431 125.153 60.0271 123.318L60.4111 121.462C56.2298 122.998 54.1391 124.812 54.1391 126.902C54.1391 127.457 54.3311 127.948 54.7151 128.374C55.0991 128.801 55.6324 129.014 56.3151 129.014ZM102.672 118.39C100.069 118.39 98.1494 117.708 96.9121 116.342C95.7174 114.934 95.1201 113.206 95.1201 111.158C95.1201 110.262 95.2268 109.26 95.4401 108.15C95.6534 106.998 95.8668 105.889 96.0801 104.822C96.3361 103.756 96.5068 103.073 96.5921 102.774C96.9334 101.281 97.2534 99.809 97.5521 98.3583C97.8508 96.9077 98.0001 95.7343 98.0001 94.8383C98.0001 92.6623 97.2321 91.5743 95.6961 91.5743C94.5868 91.5743 93.6054 92.129 92.7521 93.2383C91.8988 94.305 91.2161 95.713 90.7041 97.4623L86.3521 118.006H77.1361L83.9201 86.0063H93.1361L92.4321 89.3343C94.5654 86.945 97.0614 85.7503 99.9201 85.7503C102.096 85.7503 103.824 86.3477 105.104 87.5423C106.384 88.737 107.024 90.5503 107.024 92.9823C107.024 94.2197 106.875 95.6063 106.576 97.1423C106.277 98.6357 105.851 100.47 105.296 102.646C104.955 103.969 104.635 105.27 104.336 106.55C104.08 107.788 103.952 108.769 103.952 109.494C103.952 110.348 104.144 111.009 104.528 111.478C104.912 111.948 105.573 112.182 106.512 112.182C107.792 112.182 108.816 111.734 109.584 110.838C110.352 109.9 111.12 108.47 111.888 106.55H114.576C112.997 111.244 111.163 114.401 109.072 116.022C107.024 117.601 104.891 118.39 102.672 118.39ZM116.297 118.39C114.249 118.39 112.585 117.75 111.305 116.47C110.067 115.19 109.449 113.27 109.449 110.71C109.449 109.644 109.619 108.257 109.961 106.55L113.801 88.5663H111.689L112.201 86.0063H114.313L116.233 77.1743L125.705 75.8943L123.529 86.0063H127.369L126.857 88.5663H123.017L118.921 107.766C118.75 108.406 118.665 109.089 118.665 109.814C118.665 110.668 118.857 111.286 119.241 111.67C119.667 112.012 120.35 112.182 121.289 112.182C122.526 112.182 123.678 111.67 124.745 110.646C125.811 109.58 126.579 108.214 127.049 106.55H129.737C128.158 111.158 126.131 114.294 123.657 115.958C121.182 117.58 118.729 118.39 116.297 118.39ZM130.863 118.39C128.431 118.39 126.404 117.558 124.783 115.894C123.162 114.23 122.351 111.628 122.351 108.086C122.351 104.929 122.97 101.622 124.207 98.1663C125.487 94.6677 127.364 91.7237 129.839 89.3343C132.356 86.9023 135.343 85.6863 138.799 85.6863C140.548 85.6863 141.85 85.985 142.703 86.5823C143.556 87.1797 143.983 87.969 143.983 88.9503V89.3983L144.687 86.0063H153.903L149.295 107.766C149.167 108.321 149.103 108.854 149.103 109.366C149.103 111.244 150.02 112.182 151.855 112.182C153.476 112.182 155.226 111.606 157.103 110.454C159.023 109.302 160.687 107.873 162.095 106.166L158.383 86.0063H167.407L169.903 99.8303C171.823 97.7823 173.316 95.8623 174.383 94.0703C175.45 92.2783 175.983 90.8063 175.983 89.6543C175.983 89.2703 175.962 89.0143 175.919 88.8863C175.322 88.9717 174.959 89.0143 174.831 89.0143C173.764 89.0143 172.996 88.6943 172.527 88.0543C172.058 87.3717 171.823 86.497 171.823 85.4303C171.823 84.4917 172.164 83.7663 172.847 83.2543C173.53 82.6997 174.383 82.4223 175.407 82.4223C176.772 82.4223 177.839 82.9557 178.607 84.0223C179.375 85.089 179.759 86.4543 179.759 88.1183C179.759 90.1663 179.034 92.385 177.583 94.7743C176.175 97.121 173.85 99.9797 170.607 103.35L171.183 106.55C171.567 108.684 171.994 110.156 172.463 110.966C172.975 111.777 173.892 112.182 175.215 112.182C175.983 112.182 176.666 112.054 177.263 111.798C177.092 113.932 176.324 115.574 174.959 116.726C173.636 117.836 172.058 118.39 170.223 118.39C168.218 118.39 166.66 117.729 165.551 116.406C164.484 115.084 163.567 112.886 162.799 109.814C158.276 115.532 153.263 118.39 147.759 118.39C145.924 118.39 144.324 117.857 142.959 116.79C141.636 115.724 140.804 114.252 140.463 112.374C137.818 116.385 134.618 118.39 130.863 118.39ZM135.023 112.182C136.09 112.182 137.135 111.692 138.159 110.71C139.226 109.686 139.951 108.3 140.335 106.55L143.407 92.0863C143.407 91.5317 143.194 90.9983 142.767 90.4863C142.34 89.9317 141.679 89.6543 140.783 89.6543C139.076 89.6543 137.54 90.657 136.175 92.6623C134.81 94.625 133.743 97.0143 132.975 99.8303C132.207 102.604 131.823 105.057 131.823 107.19C131.823 109.324 132.122 110.689 132.719 111.286C133.359 111.884 134.127 112.182 135.023 112.182Z" fill="white"/>
</svg>
