<svg width="490" height="268" viewBox="0 0 490 268" fill="none" xmlns="http://www.w3.org/2000/svg">
<path d="M4.875 39.25C11.875 39.5 19.1667 39.625 26.75 39.625H33.9375C36.9792 39.5833 42.2292 39.5625 49.6875 39.5625C57.1875 39.5208 63.5833 39.4792 68.875 39.4375C74.2083 39.3958 79.5 39.2917 84.75 39.125C85.0833 42 85.7917 45 86.875 48.125C87.9583 51.2083 89 53.75 90 55.75C91 57.7083 92.3125 60.0833 93.9375 62.875C93.6042 63.5833 92.875 64.1458 91.75 64.5625C90.25 61.7292 88.4375 59.2083 86.3125 57C84.1875 54.7917 81.5 52.7083 78.25 50.75C75.0417 48.7917 71.0208 47.1875 66.1875 45.9375C61.3958 44.6875 55.9375 43.8542 49.8125 43.4375H33.9375C33.3958 61.4375 33.125 75.0417 33.125 84.25H50.9375C51.9792 84.25 52.9583 84.1667 53.875 84C54.7917 83.7917 55.6458 83.4583 56.4375 83C57.2708 82.5417 57.9792 82.1042 58.5625 81.6875C59.1875 81.2292 59.8333 80.5625 60.5 79.6875C61.2083 78.7708 61.7708 78.0208 62.1875 77.4375C62.6042 76.8542 63.125 75.9375 63.75 74.6875C64.375 73.3958 64.8542 72.4167 65.1875 71.75C65.5208 71.0833 66.0208 69.9792 66.6875 68.4375C67.3958 66.8958 67.9167 65.7708 68.25 65.0625C69.7083 65.6875 70.5 66.2083 70.625 66.625C68.1667 73.0417 66.9375 79.5625 66.9375 86.1875C66.9375 92.7708 68.1667 99.3125 70.625 105.812C70.3333 106.396 69.5417 106.938 68.25 107.438C65.7083 101.312 63.7708 97.2083 62.4375 95.125C59.3542 90.5 55.5208 88.1667 50.9375 88.125H33.125C33.125 97.0833 33.3542 108.521 33.8125 122.438C33.8542 123.521 34.3333 124.458 35.25 125.25C36.1667 126 37.4792 126.583 39.1875 127C40.9375 127.417 42.3958 127.729 43.5625 127.938C44.7708 128.104 46.3333 128.271 48.25 128.438C48.4167 129.271 48.5 129.833 48.5 130.125C48.5 130.458 48.4167 130.875 48.25 131.375C41.1667 131.125 33.9167 131 26.5 131C19 131 11.75 131.125 4.75 131.375C4.58333 130.875 4.5 130.458 4.5 130.125C4.5 129.833 4.58333 129.271 4.75 128.438C6 128.312 7 128.208 7.75 128.125C8.5 128.042 9.52083 127.896 10.8125 127.688C12.1458 127.479 13.2083 127.25 14 127C14.8333 126.708 15.6875 126.354 16.5625 125.938C17.4375 125.521 18.0833 125.021 18.5 124.438C18.9583 123.854 19.1875 123.188 19.1875 122.438C19.6875 109.396 19.9375 96.25 19.9375 83C19.9375 69.5 19.7292 57.8542 19.3125 48.0625C19.2708 46.9792 18.7917 46.0625 17.875 45.3125C17 44.5625 15.6667 43.9792 13.875 43.5625C12.0833 43.1458 10.6458 42.875 9.5625 42.75C8.47917 42.5833 6.91667 42.3958 4.875 42.1875C4.70833 41.4375 4.625 40.9167 4.625 40.625C4.625 40.375 4.70833 39.9167 4.875 39.25ZM114.482 74.1875C118.607 74.1875 122.316 74.9167 125.607 76.375C128.941 77.8333 131.774 79.8542 134.107 82.4375C136.441 85.0208 138.232 88.125 139.482 91.75C140.732 95.3333 141.357 99.25 141.357 103.5C141.357 112.167 138.92 119.208 134.045 124.625C129.212 130.083 122.691 132.812 114.482 132.812C110.399 132.812 106.691 132.104 103.357 130.688C100.066 129.229 97.2533 127.208 94.92 124.625C92.5867 122 90.7742 118.896 89.4825 115.312C88.2325 111.729 87.6075 107.792 87.6075 103.5C87.6075 99.25 88.2325 95.3333 89.4825 91.75C90.7325 88.125 92.5033 85.0208 94.795 82.4375C97.1283 79.8542 99.9617 77.8333 103.295 76.375C106.628 74.9167 110.357 74.1875 114.482 74.1875ZM114.482 78.25C110.232 78.25 106.837 80.3125 104.295 84.4375C101.795 88.5625 100.545 94.9167 100.545 103.5C100.545 112.083 101.795 118.438 104.295 122.562C106.837 126.646 110.232 128.688 114.482 128.688C118.732 128.688 122.107 126.625 124.607 122.5C127.149 118.375 128.42 112.042 128.42 103.5C128.42 99.2083 128.087 95.4792 127.42 92.3125C126.753 89.1458 125.816 86.5208 124.607 84.4375C123.399 82.3542 121.941 80.8125 120.232 79.8125C118.524 78.7708 116.607 78.25 114.482 78.25ZM139.715 79.5625C147.798 78.7292 154.84 77.0208 160.84 74.4375C161.882 74.8542 162.611 75.3958 163.027 76.0625V86.8125C164.569 83.8958 166.861 81.0625 169.902 78.3125C172.986 75.5625 176.194 74.1875 179.527 74.1875C182.027 74.1875 184.048 74.9375 185.59 76.4375C187.173 77.8958 187.965 79.9167 187.965 82.5C187.965 84.9583 187.236 86.875 185.777 88.25C184.319 89.625 182.486 90.3125 180.277 90.3125C178.236 90.3125 176.548 89.6667 175.215 88.375C173.923 87.0417 173.215 85.2917 173.09 83.125C171.34 83.875 169.34 85.5417 167.09 88.125C164.882 90.7083 163.527 93.2708 163.027 95.8125C163.027 105.104 163.194 113.979 163.527 122.438C163.569 123.521 163.965 124.458 164.715 125.25C165.465 126 166.569 126.583 168.027 127C169.486 127.417 170.694 127.729 171.652 127.938C172.611 128.104 173.861 128.271 175.402 128.438C175.652 128.938 175.777 129.458 175.777 130C175.777 130.417 175.652 130.875 175.402 131.375C169.152 131.125 162.965 131 156.84 131C151.757 131 146.465 131.125 140.965 131.375C140.798 130.708 140.715 130.25 140.715 130C140.715 129.792 140.798 129.271 140.965 128.438C142.34 128.271 143.465 128.104 144.34 127.938C145.215 127.729 146.298 127.417 147.59 127C148.882 126.583 149.861 126 150.527 125.25C151.194 124.458 151.548 123.521 151.59 122.438C151.757 118.312 151.84 113.312 151.84 107.438C151.84 105.479 151.819 102.146 151.777 97.4375C151.736 92.7292 151.715 88.6042 151.715 85.0625C149.34 83.6042 145.34 82.75 139.715 82.5C139.548 81.8333 139.465 81.3125 139.465 80.9375C139.465 80.6875 139.548 80.2292 139.715 79.5625ZM229.885 93.75C229.885 100.333 227.76 105.604 223.51 109.562C219.26 113.521 214.093 115.5 208.01 115.5C205.135 115.5 202.447 115.292 199.947 114.875C197.447 116.458 196.197 118.417 196.197 120.75C196.197 122.625 197.364 124 199.697 124.875C202.072 125.708 206.114 126.125 211.822 126.125C212.739 126.125 214.468 126.083 217.01 126C219.552 125.917 221.572 125.875 223.072 125.875C234.697 125.875 240.51 130.646 240.51 140.188C240.51 142.896 239.697 145.75 238.072 148.75C236.489 151.75 234.302 154.542 231.51 157.125C228.76 159.75 225.281 161.917 221.072 163.625C216.906 165.333 212.51 166.188 207.885 166.188C200.593 166.188 195.072 164.833 191.322 162.125C187.572 159.458 185.697 156.125 185.697 152.125C185.697 149.333 186.718 146.542 188.76 143.75C190.843 140.958 193.927 138.458 198.01 136.25C189.968 135.083 185.947 131.958 185.947 126.875C185.947 124.458 186.843 122.188 188.635 120.062C190.468 117.896 192.947 115.646 196.072 113.312C191.822 110.938 188.885 108.208 187.26 105.125C185.635 102.042 184.822 98.5417 184.822 94.625C184.822 92.2083 185.385 89.7917 186.51 87.375C187.677 84.9167 189.239 82.7292 191.197 80.8125C193.156 78.8542 195.552 77.2708 198.385 76.0625C201.26 74.8125 204.281 74.1875 207.447 74.1875C210.364 74.1875 212.76 74.4167 214.635 74.875C216.51 75.2917 218.843 76.0417 221.635 77.125C224.427 78.2083 227.052 79.1042 229.51 79.8125C229.718 78.1875 230.364 76.8125 231.447 75.6875C232.531 74.5208 233.927 73.9375 235.635 73.9375C237.177 73.9375 238.552 74.5833 239.76 75.875C241.01 77.1667 241.635 78.6458 241.635 80.3125C241.635 82.0208 241.093 83.5 240.01 84.75C238.968 85.9583 237.635 86.5625 236.01 86.5625C235.052 86.5625 234.093 86.3958 233.135 86.0625C232.177 85.7292 231.385 85.3958 230.76 85.0625C230.177 84.6875 229.302 84.1042 228.135 83.3125C226.968 82.4792 226.052 81.8542 225.385 81.4375L225.135 81.75C226.677 83.125 227.843 84.8958 228.635 87.0625C229.468 89.1875 229.885 91.4167 229.885 93.75ZM197.26 147.625C197.26 149.292 197.51 150.875 198.01 152.375C198.51 153.875 199.302 155.292 200.385 156.625C201.468 157.958 202.989 159 204.947 159.75C206.947 160.542 209.281 160.938 211.947 160.938C215.364 160.938 218.385 160.396 221.01 159.312C223.677 158.271 225.697 156.958 227.072 155.375C228.447 153.792 229.468 152.25 230.135 150.75C230.802 149.292 231.135 147.958 231.135 146.75C231.135 145.083 230.989 143.667 230.697 142.5C230.406 141.375 229.843 140.271 229.01 139.188C228.218 138.146 226.968 137.354 225.26 136.812C223.552 136.271 221.385 136 218.76 136C217.343 136 214.697 136.083 210.822 136.25C206.947 136.417 204.468 136.5 203.385 136.5C201.468 137.833 199.968 139.479 198.885 141.438C197.802 143.396 197.26 145.458 197.26 147.625ZM197.51 94.75C197.51 105.875 200.822 111.438 207.447 111.438C210.614 111.438 213.031 110.062 214.697 107.312C216.364 104.562 217.197 100 217.197 93.625C217.197 90.7083 216.864 88.1875 216.197 86.0625C215.531 83.8958 214.656 82.2917 213.572 81.25C212.531 80.1667 211.468 79.3958 210.385 78.9375C209.343 78.4792 208.281 78.25 207.197 78.25C204.406 78.25 202.093 79.5625 200.26 82.1875C198.427 84.8125 197.51 89 197.51 94.75ZM282.68 97.875H248.617C248.451 100.375 248.367 102.583 248.367 104.5C248.492 110.708 250.305 115.688 253.805 119.438C257.305 123.146 261.992 125 267.867 125C269.451 125 270.93 124.833 272.305 124.5C273.68 124.125 274.805 123.708 275.68 123.25C276.597 122.792 277.534 122.125 278.492 121.25C279.451 120.375 280.138 119.688 280.555 119.188C281.013 118.646 281.617 117.854 282.367 116.812C283.117 115.729 283.617 115.042 283.867 114.75C284.867 114.958 285.68 115.417 286.305 116.125C284.222 121.708 280.992 125.896 276.617 128.688C272.242 131.438 267.492 132.812 262.367 132.812C259.826 132.812 257.347 132.479 254.93 131.812C252.555 131.188 250.242 130.146 247.992 128.688C245.742 127.229 243.784 125.438 242.117 123.312C240.451 121.146 239.117 118.458 238.117 115.25C237.117 112 236.617 108.417 236.617 104.5C236.617 95.7083 239.305 88.4583 244.68 82.75C250.055 77.0417 256.659 74.1875 264.492 74.1875C267.951 74.1875 270.951 74.6875 273.492 75.6875C276.076 76.6458 278.076 77.9583 279.492 79.625C280.951 81.2917 282.013 83.125 282.68 85.125C283.388 87.0833 283.742 89.1875 283.742 91.4375C283.742 93.5208 283.388 95.6667 282.68 97.875ZM262.992 78.25C260.117 78.25 257.388 79.5208 254.805 82.0625C252.263 84.6042 250.43 88.4583 249.305 93.625H271.805C272.222 92.0417 272.43 90.6667 272.43 89.5C272.43 86.25 271.68 83.5625 270.18 81.4375C268.68 79.3125 266.284 78.25 262.992 78.25ZM313.975 41.125C321.85 40.375 328.892 38.6667 335.1 36C336.183 36.4583 336.892 37.0208 337.225 37.6875C337.225 84.8958 337.413 113.146 337.788 122.438C337.829 123.521 338.142 124.458 338.725 125.25C339.35 126 340.225 126.583 341.35 127C342.475 127.417 343.413 127.729 344.163 127.938C344.913 128.104 345.892 128.271 347.1 128.438C347.267 129.104 347.35 129.625 347.35 130C347.35 130.25 347.267 130.708 347.1 131.375C345.642 131.292 344.142 131.208 342.6 131.125C341.1 131.042 339.913 130.979 339.038 130.938C338.163 130.896 337.35 130.875 336.6 130.875C335.975 130.875 335.267 130.896 334.475 130.938C333.683 130.979 332.6 131.042 331.225 131.125C329.85 131.208 328.496 131.292 327.163 131.375C326.954 131.292 326.767 131.188 326.6 131.062C326.475 130.979 326.371 130.917 326.288 130.875C326.246 130.792 326.183 130.688 326.1 130.562C326.017 130.396 325.954 130.292 325.913 130.25C325.871 130.208 325.808 130.083 325.725 129.875C325.683 129.625 325.642 129.479 325.6 129.438C325.767 128.438 325.85 126.188 325.85 122.688C318.975 129.438 312.621 132.812 306.788 132.812C300.371 132.812 295.142 130.396 291.1 125.562C287.058 120.729 285.038 114.146 285.038 105.812C285.038 102.938 285.371 100.062 286.038 97.1875C286.704 94.3125 287.808 91.4792 289.35 88.6875C290.892 85.8958 292.788 83.4375 295.038 81.3125C297.288 79.1875 300.142 77.4792 303.6 76.1875C307.058 74.8542 310.892 74.1875 315.1 74.1875C318.225 74.1875 321.892 74.8542 326.1 76.1875C326.017 68.2708 325.975 58.4167 325.975 46.625C323.6 45.25 319.6 44.3958 313.975 44.0625C313.808 43.3958 313.725 42.8958 313.725 42.5625C313.725 42.2708 313.808 41.7917 313.975 41.125ZM312.788 124.625C316.954 124.625 321.35 122.396 325.975 117.938C326.058 113.854 326.1 106.125 326.1 94.75V85.6875C323.225 80.7292 318.829 78.25 312.913 78.25C311.663 78.25 310.413 78.4375 309.163 78.8125C307.913 79.1875 306.579 79.9375 305.163 81.0625C303.746 82.1875 302.496 83.625 301.413 85.375C300.371 87.125 299.496 89.5625 298.788 92.6875C298.079 95.7708 297.725 99.3333 297.725 103.375C297.725 109.542 298.996 114.625 301.538 118.625C304.121 122.625 307.871 124.625 312.788 124.625ZM361.815 39.125C371.148 39.4583 378.398 39.625 383.565 39.625C388.732 39.625 395.982 39.4583 405.315 39.125C405.482 39.7917 405.565 40.25 405.565 40.5C405.565 40.9583 405.482 41.4792 405.315 42.0625C403.398 42.2292 401.836 42.4167 400.628 42.625C399.461 42.7917 398.003 43.0833 396.253 43.5C394.544 43.9167 393.232 44.5208 392.315 45.3125C391.398 46.0625 390.919 46.9792 390.878 48.0625C390.336 62.2292 390.065 75.4167 390.065 87.625C390.065 96.5417 390.294 108.146 390.753 122.438C390.794 123.521 391.273 124.458 392.19 125.25C393.107 126 394.419 126.583 396.128 127C397.878 127.417 399.336 127.729 400.503 127.938C401.711 128.104 403.273 128.271 405.19 128.438C405.357 128.938 405.44 129.5 405.44 130.125C405.44 130.458 405.357 130.875 405.19 131.375C398.107 131.125 390.857 131 383.44 131C375.94 131 368.69 131.125 361.69 131.375C361.523 130.875 361.44 130.458 361.44 130.125C361.44 129.417 361.523 128.854 361.69 128.438C362.94 128.312 363.94 128.208 364.69 128.125C365.44 128.042 366.461 127.896 367.753 127.688C369.086 127.479 370.148 127.25 370.94 127C371.773 126.708 372.628 126.354 373.503 125.938C374.378 125.521 375.023 125.021 375.44 124.438C375.898 123.854 376.128 123.188 376.128 122.438C376.628 109.396 376.878 96.25 376.878 83C376.878 69.5 376.669 57.8542 376.253 48.0625C376.211 46.9792 375.732 46.0625 374.815 45.3125C373.898 44.5208 372.565 43.9167 370.815 43.5C369.107 43.0833 367.648 42.7917 366.44 42.625C365.273 42.4167 363.732 42.2292 361.815 42.0625C361.648 41.3125 361.565 40.7917 361.565 40.5C361.565 40.0833 361.648 39.625 361.815 39.125ZM433.86 128.438C434.11 128.938 434.235 129.458 434.235 130C434.235 130.417 434.11 130.875 433.86 131.375C428.36 131.125 423.027 131 417.86 131C412.777 131 407.485 131.125 401.985 131.375C401.818 130.708 401.735 130.25 401.735 130C401.735 129.792 401.818 129.271 401.985 128.438C403.36 128.271 404.485 128.104 405.36 127.938C406.235 127.729 407.318 127.417 408.61 127C409.902 126.583 410.881 126 411.547 125.25C412.214 124.458 412.568 123.521 412.61 122.438C412.777 118.312 412.86 113.312 412.86 107.438C412.86 105.479 412.839 102.146 412.797 97.4375C412.756 92.7292 412.735 88.6042 412.735 85.0625C410.36 83.6042 406.36 82.75 400.735 82.5C400.568 81.8333 400.485 81.3125 400.485 80.9375C400.485 80.6875 400.568 80.2292 400.735 79.5625C408.818 78.7292 415.86 77.0208 421.86 74.4375C422.902 74.8542 423.631 75.3958 424.047 76.0625V85.9375C428.089 82.3958 431.964 79.5625 435.672 77.4375C439.381 75.2708 443.131 74.1875 446.922 74.1875C451.672 74.1875 455.027 75.5208 456.985 78.1875C458.985 80.8542 460.027 85.0208 460.11 90.6875L460.735 122.438C460.777 123.521 461.089 124.458 461.672 125.25C462.297 126 463.172 126.583 464.297 127C465.464 127.417 466.422 127.729 467.172 127.938C467.922 128.104 468.902 128.271 470.11 128.438C470.277 129.271 470.36 129.833 470.36 130.125C470.36 130.458 470.277 130.875 470.11 131.375C464.735 131.125 459.777 131 455.235 131C450.818 131 445.922 131.125 440.547 131.375C440.381 130.708 440.297 130.208 440.297 129.875C440.297 129.583 440.381 129.104 440.547 128.438C441.631 128.271 442.527 128.104 443.235 127.938C443.985 127.729 444.818 127.417 445.735 127C446.693 126.583 447.402 126 447.86 125.25C448.36 124.458 448.61 123.521 448.61 122.438L448.735 92.75C448.735 85.2083 446.464 81.4375 441.922 81.4375C437.672 81.4375 431.714 84.2708 424.047 89.9375C424.047 102.062 424.214 112.896 424.547 122.438C424.589 123.521 424.902 124.458 425.485 125.25C426.11 126 426.985 126.583 428.11 127C429.235 127.417 430.172 127.729 430.922 127.938C431.672 128.104 432.652 128.271 433.86 128.438Z" fill="white"/>
<path d="M148 164.562C146.417 156.938 143.5 151.021 139.25 146.812C135.042 142.604 129.979 140.5 124.062 140.5C118.271 140.5 113.771 141.875 110.562 144.625C107.396 147.375 105.812 151.042 105.812 155.625C105.812 158.167 106.042 160.271 106.5 161.938C106.958 163.604 107.896 165.229 109.312 166.812C110.729 168.354 112.792 169.729 115.5 170.938C118.208 172.104 121.75 173.229 126.125 174.312C128.5 174.896 130.562 175.438 132.312 175.938C134.104 176.438 136.062 177.125 138.188 178C140.354 178.875 142.208 179.812 143.75 180.812C145.333 181.812 146.896 183.062 148.438 184.562C150.021 186.021 151.292 187.646 152.25 189.438C153.25 191.229 154.042 193.354 154.625 195.812C155.25 198.229 155.562 200.875 155.562 203.75C155.562 207.583 154.854 211.125 153.438 214.375C152.021 217.583 150.167 220.292 147.875 222.5C145.583 224.708 142.938 226.583 139.938 228.125C136.938 229.667 133.896 230.792 130.812 231.5C127.729 232.208 124.667 232.562 121.625 232.562C112.375 232.562 102.521 230.167 92.0625 225.375C92.2708 220.875 92.375 218.104 92.375 217.062C92.375 210.271 91.8125 203.5 90.6875 196.75C91.1458 196.458 91.6042 196.312 92.0625 196.312C92.6458 196.312 93.1667 196.458 93.625 196.75C94.5 202.125 95.9375 206.875 97.9375 211C99.9792 215.125 102.312 218.396 104.938 220.812C107.562 223.188 110.271 224.979 113.062 226.188C115.896 227.354 118.75 227.938 121.625 227.938C128.167 227.938 133.188 226.25 136.688 222.875C140.229 219.458 142 214.958 142 209.375C142 203.75 140.688 199.521 138.062 196.688C135.479 193.812 130.521 191.479 123.188 189.688C114.021 187.396 106.854 184.021 101.688 179.562C96.5625 175.062 94 169.125 94 161.75C94 157.875 94.625 154.417 95.875 151.375C97.1667 148.292 98.8125 145.833 100.812 144C102.854 142.125 105.229 140.583 107.938 139.375C110.646 138.125 113.312 137.271 115.938 136.812C118.604 136.312 121.312 136.062 124.062 136.062C132.312 136.062 140.896 137.979 149.812 141.812C149.562 144.271 149.438 146.833 149.438 149.5C149.438 155.75 149.938 160.771 150.938 164.562C150.396 164.771 149.938 164.875 149.562 164.875C149.146 164.875 148.625 164.771 148 164.562ZM144.92 174.562C150.42 174.812 155.982 174.938 161.607 174.938C166.732 174.938 171.982 174.812 177.357 174.562C177.524 175.229 177.607 175.75 177.607 176.125C177.607 176.375 177.524 176.833 177.357 177.5C176.107 177.583 175.107 177.688 174.357 177.812C173.607 177.896 172.628 178.062 171.42 178.312C170.253 178.562 169.357 178.938 168.732 179.438C168.149 179.938 167.857 180.542 167.857 181.25C167.857 181.625 168.024 182.396 168.357 183.562L181.045 215.125H181.42L193.482 183.562C193.899 182.521 194.107 181.625 194.107 180.875C194.107 178.958 191.712 177.833 186.92 177.5C186.753 176.833 186.67 176.375 186.67 176.125C186.67 175.75 186.753 175.229 186.92 174.562C191.795 174.812 194.837 174.938 196.045 174.938C199.545 174.938 203.982 174.812 209.357 174.562C209.524 175.062 209.607 175.5 209.607 175.875C209.607 176.125 209.524 176.667 209.357 177.5C204.149 177.708 200.774 179.729 199.232 183.562L179.92 229.75H180.045L173.107 247.938C170.524 254.688 168.107 259.25 165.857 261.625C163.649 264 160.816 265.188 157.357 265.188C154.566 265.188 152.232 264.354 150.357 262.688C148.524 261.021 147.607 258.833 147.607 256.125C147.607 253.667 148.295 251.729 149.67 250.312C151.045 248.896 152.753 248.188 154.795 248.188C156.67 248.188 158.107 248.75 159.107 249.875C160.149 251 160.67 252.271 160.67 253.688C160.67 255.688 159.774 257.271 157.982 258.438C158.191 259.354 158.878 259.812 160.045 259.812C161.378 259.812 162.628 259.042 163.795 257.5C164.962 256 166.482 252.771 168.357 247.812L175.295 230L155.795 183.562C155.337 182.521 154.691 181.625 153.857 180.875C153.024 180.083 152.003 179.479 150.795 179.062C149.628 178.604 148.649 178.292 147.857 178.125C147.066 177.917 146.087 177.708 144.92 177.5C144.753 177.167 144.67 176.708 144.67 176.125C144.67 175.5 144.753 174.979 144.92 174.562ZM230.84 227.438C231.09 227.938 231.215 228.458 231.215 229C231.215 229.417 231.09 229.875 230.84 230.375C225.34 230.125 220.007 230 214.84 230C209.757 230 204.465 230.125 198.965 230.375C198.798 229.708 198.715 229.25 198.715 229C198.715 228.792 198.798 228.271 198.965 227.438C200.34 227.271 201.465 227.104 202.34 226.938C203.215 226.729 204.298 226.417 205.59 226C206.882 225.583 207.861 225 208.527 224.25C209.194 223.458 209.548 222.521 209.59 221.438C209.757 217.312 209.84 212.312 209.84 206.438C209.84 204.479 209.819 201.146 209.777 196.438C209.736 191.729 209.715 187.604 209.715 184.062C207.34 182.604 203.34 181.75 197.715 181.5C197.548 180.833 197.465 180.312 197.465 179.938C197.465 179.688 197.548 179.229 197.715 178.562C205.798 177.729 212.84 176.021 218.84 173.438C219.882 173.854 220.611 174.396 221.027 175.062V184.938C225.069 181.396 228.944 178.562 232.652 176.438C236.361 174.271 240.111 173.188 243.902 173.188C248.652 173.188 252.007 174.521 253.965 177.188C255.965 179.854 257.007 184.021 257.09 189.688L257.715 221.438C257.757 222.521 258.069 223.458 258.652 224.25C259.277 225 260.152 225.583 261.277 226C262.444 226.417 263.402 226.729 264.152 226.938C264.902 227.104 265.882 227.271 267.09 227.438C267.257 228.271 267.34 228.833 267.34 229.125C267.34 229.458 267.257 229.875 267.09 230.375C261.715 230.125 256.757 230 252.215 230C247.798 230 242.902 230.125 237.527 230.375C237.361 229.708 237.277 229.208 237.277 228.875C237.277 228.583 237.361 228.104 237.527 227.438C238.611 227.271 239.507 227.104 240.215 226.938C240.965 226.729 241.798 226.417 242.715 226C243.673 225.583 244.382 225 244.84 224.25C245.34 223.458 245.59 222.521 245.59 221.438L245.715 191.75C245.715 184.208 243.444 180.438 238.902 180.438C234.652 180.438 228.694 183.271 221.027 188.938C221.027 201.062 221.194 211.896 221.527 221.438C221.569 222.521 221.882 223.458 222.465 224.25C223.09 225 223.965 225.583 225.09 226C226.215 226.417 227.152 226.729 227.902 226.938C228.652 227.104 229.632 227.271 230.84 227.438ZM279.01 162.562C279.427 162.396 279.906 162.312 280.447 162.312C280.989 162.312 281.552 162.396 282.135 162.562V176.25H301.072C301.322 176.875 301.447 177.646 301.447 178.562C301.447 179.354 301.322 180.083 301.072 180.75H282.135V214.125C282.135 220.708 285.156 224 291.197 224C293.489 224 295.447 223.562 297.072 222.688C298.739 221.812 300.572 220.5 302.572 218.75C303.614 218.875 304.302 219.375 304.635 220.25C302.802 223.542 300.093 226.292 296.51 228.5C292.927 230.708 288.989 231.812 284.697 231.812C274.614 231.812 269.572 225.708 269.572 213.5V180.75H261.885C261.718 180 261.635 179.521 261.635 179.312C261.635 179.271 261.718 178.792 261.885 177.875C263.885 176.875 265.406 176.062 266.447 175.438C267.531 174.771 268.885 173.833 270.51 172.625C272.177 171.417 273.677 170 275.01 168.375C276.385 166.708 277.718 164.771 279.01 162.562ZM303.18 188.938C303.18 184.354 305.263 180.583 309.43 177.625C313.638 174.667 318.597 173.188 324.305 173.188C331.305 173.188 336.222 174.583 339.055 177.375C341.93 180.167 343.367 184.875 343.367 191.5V217.438C343.367 219.771 344.222 220.938 345.93 220.938C347.305 220.938 349.055 219.271 351.18 215.938C352.68 216.062 353.701 216.729 354.242 217.938C353.951 218.354 353.451 219.104 352.742 220.188C352.034 221.271 351.513 222.042 351.18 222.5C350.847 222.958 350.326 223.667 349.617 224.625C348.909 225.542 348.326 226.229 347.867 226.688C347.451 227.146 346.867 227.688 346.117 228.312C345.409 228.938 344.742 229.417 344.117 229.75C343.534 230.042 342.847 230.292 342.055 230.5C341.263 230.75 340.472 230.875 339.68 230.875C337.597 230.875 335.867 230.125 334.492 228.625C333.159 227.125 332.367 224.812 332.117 221.688C332.076 221.729 331.43 222.333 330.18 223.5C328.93 224.667 328.055 225.458 327.555 225.875C327.097 226.25 326.201 226.938 324.867 227.938C323.576 228.896 322.472 229.583 321.555 230C320.638 230.417 319.492 230.812 318.117 231.188C316.742 231.604 315.388 231.812 314.055 231.812C311.93 231.812 310.034 231.521 308.367 230.938C306.742 230.354 305.472 229.646 304.555 228.812C303.638 227.979 302.888 227.021 302.305 225.938C301.722 224.812 301.326 223.792 301.117 222.875C300.951 221.958 300.867 221.042 300.867 220.125C300.867 217.333 301.326 214.979 302.242 213.062C303.201 211.146 304.951 209.354 307.492 207.688C310.076 206.021 313.242 204.542 316.992 203.25C320.742 201.958 325.784 200.5 332.117 198.875V190.188C332.117 185.979 331.18 182.833 329.305 180.75C327.472 178.667 324.992 177.625 321.867 177.625C319.076 177.625 316.722 178.188 314.805 179.312C312.93 180.396 311.784 181.667 311.367 183.125C315.451 183.75 317.492 185.979 317.492 189.812C317.492 191.562 316.867 193.104 315.617 194.438C314.367 195.771 312.617 196.438 310.367 196.438C308.492 196.438 306.826 195.792 305.367 194.5C303.909 193.167 303.18 191.312 303.18 188.938ZM332.117 215.938V202.875C328.284 203.75 325.117 204.708 322.617 205.75C320.117 206.75 318.201 207.854 316.867 209.062C315.576 210.271 314.68 211.521 314.18 212.812C313.68 214.062 313.43 215.521 313.43 217.188C313.43 219.271 314.034 220.917 315.242 222.125C316.492 223.292 318.013 223.875 319.805 223.875C323.972 223.875 328.076 221.229 332.117 215.938ZM344.475 174.562C349.975 174.812 355.308 174.938 360.475 174.938C364.35 174.938 368.975 174.812 374.35 174.562C374.517 175.229 374.6 175.75 374.6 176.125C374.6 176.375 374.517 176.833 374.35 177.5C373.308 177.583 372.433 177.688 371.725 177.812C371.058 177.896 370.329 178.062 369.538 178.312C368.746 178.521 368.142 178.854 367.725 179.312C367.35 179.771 367.163 180.333 367.163 181C367.163 181.375 367.204 181.75 367.288 182.125C367.413 182.458 367.538 182.771 367.663 183.062C367.829 183.312 367.913 183.479 367.913 183.562L377.538 197L387.663 183.562C388.579 182.271 389.038 181.375 389.038 180.875C389.038 178.75 386.913 177.625 382.663 177.5C382.496 176.833 382.413 176.375 382.413 176.125C382.413 175.75 382.496 175.229 382.663 174.562C387.538 174.812 390.558 174.938 391.725 174.938C395.225 174.938 399.663 174.812 405.038 174.562C405.204 175.062 405.288 175.5 405.288 175.875C405.288 176.125 405.204 176.667 405.038 177.5C403.204 177.583 401.496 178 399.913 178.75C398.329 179.458 397.142 180.146 396.35 180.812C395.6 181.479 394.663 182.396 393.538 183.562L380.225 200.562L395.288 221.438C396.288 222.646 397.246 223.646 398.163 224.438C399.121 225.229 400.121 225.833 401.163 226.25C402.204 226.625 402.996 226.875 403.538 227C404.121 227.125 405.017 227.271 406.225 227.438C406.392 227.771 406.475 228.25 406.475 228.875C406.475 229.458 406.392 229.958 406.225 230.375C400.725 230.125 395.392 230 390.225 230C386.35 230 381.725 230.125 376.35 230.375C376.183 229.708 376.1 229.208 376.1 228.875C376.1 228.583 376.183 228.104 376.35 227.438C377.808 227.312 378.954 227.188 379.788 227.062C380.663 226.938 381.496 226.625 382.288 226.125C383.121 225.583 383.538 224.875 383.538 224C383.538 223.125 383.288 222.271 382.788 221.438L372.413 207.062L361.038 221.438C360.079 222.604 359.6 223.5 359.6 224.125C359.6 226.208 361.725 227.312 365.975 227.438C366.183 227.979 366.288 228.458 366.288 228.875C366.288 229.333 366.183 229.833 365.975 230.375C361.225 230.125 358.204 230 356.913 230C353.413 230 348.975 230.125 343.6 230.375C343.433 229.875 343.35 229.458 343.35 229.125C343.35 228.833 343.433 228.271 343.6 227.438C345.433 227.354 347.142 226.958 348.725 226.25C350.308 225.542 351.496 224.854 352.288 224.188C353.121 223.479 354.058 222.562 355.1 221.438L369.725 203.375L355.413 183.562C354.413 182.354 353.433 181.354 352.475 180.562C351.558 179.771 350.558 179.188 349.475 178.812C348.433 178.396 347.642 178.125 347.1 178C346.6 177.875 345.725 177.708 344.475 177.5C344.308 177.167 344.225 176.708 344.225 176.125C344.225 175.5 344.308 174.979 344.475 174.562Z" fill="white"/>
</svg>
